<svg width="195" height="217" viewBox="0 0 195 217" fill="none" xmlns="http://www.w3.org/2000/svg">
<path opacity="0.04" d="M157 0H-38C-43.5228 0 -48 4.47715 -48 10V206C-48 211.523 -43.5228 216 -38 216H157C162.523 216 167 211.523 167 206V10C167 4.47715 162.523 0 157 0Z" fill="#00AEFF"/>
<path opacity="0.48" d="M184.5 100.5H66.5C60.9772 100.5 56.5 104.977 56.5 110.5V229.5C56.5 235.023 60.9772 239.5 66.5 239.5H184.5C190.023 239.5 194.5 235.023 194.5 229.5V110.5C194.5 104.977 190.023 100.5 184.5 100.5Z" stroke="#A1ACB8"/>
<path d="M-13.5 182C-12.1193 182 -11 183.119 -11 184.5C-11 185.881 -12.1193 187 -13.5 187C-14.8807 187 -16 185.881 -16 184.5C-16 183.119 -14.8807 182 -13.5 182ZM13.5 182C14.8807 182 16 183.119 16 184.5C16 185.881 14.8807 187 13.5 187C12.1193 187 11 185.881 11 184.5C11 183.119 12.1193 182 13.5 182ZM43.5 182C44.8807 182 46 183.119 46 184.5C46 185.881 44.8807 187 43.5 187C42.1193 187 41 185.881 41 184.5C41 183.119 42.1193 182 43.5 182ZM75.5 182C76.8807 182 78 183.119 78 184.5C78 185.881 76.8807 187 75.5 187C74.1193 187 73 185.881 73 184.5C73 183.119 74.1193 182 75.5 182ZM105.5 182C106.881 182 108 183.119 108 184.5C108 185.881 106.881 187 105.5 187C104.119 187 103 185.881 103 184.5C103 183.119 104.119 182 105.5 182ZM132.5 182C133.881 182 135 183.119 135 184.5C135 185.881 133.881 187 132.5 187C131.119 187 130 185.881 130 184.5C130 183.119 131.119 182 132.5 182ZM-13.5 154C-12.1193 154 -11 155.119 -11 156.5C-11 157.881 -12.1193 159 -13.5 159C-14.8807 159 -16 157.881 -16 156.5C-16 155.119 -14.8807 154 -13.5 154ZM13.5 154C14.8807 154 16 155.119 16 156.5C16 157.881 14.8807 159 13.5 159C12.1193 159 11 157.881 11 156.5C11 155.119 12.1193 154 13.5 154ZM43.5 154C44.8807 154 46 155.119 46 156.5C46 157.881 44.8807 159 43.5 159C42.1193 159 41 157.881 41 156.5C41 155.119 42.1193 154 43.5 154ZM75.5 154C76.8807 154 78 155.119 78 156.5C78 157.881 76.8807 159 75.5 159C74.1193 159 73 157.881 73 156.5C73 155.119 74.1193 154 75.5 154ZM105.5 154C106.881 154 108 155.119 108 156.5C108 157.881 106.881 159 105.5 159C104.119 159 103 157.881 103 156.5C103 155.119 104.119 154 105.5 154ZM132.5 154C133.881 154 135 155.119 135 156.5C135 157.881 133.881 159 132.5 159C131.119 159 130 157.881 130 156.5C130 155.119 131.119 154 132.5 154ZM-13.5 124C-12.1193 124 -11 125.119 -11 126.5C-11 127.881 -12.1193 129 -13.5 129C-14.8807 129 -16 127.881 -16 126.5C-16 125.119 -14.8807 124 -13.5 124ZM13.5 124C14.8807 124 16 125.119 16 126.5C16 127.881 14.8807 129 13.5 129C12.1193 129 11 127.881 11 126.5C11 125.119 12.1193 124 13.5 124ZM43.5 124C44.8807 124 46 125.119 46 126.5C46 127.881 44.8807 129 43.5 129C42.1193 129 41 127.881 41 126.5C41 125.119 42.1193 124 43.5 124ZM75.5 124C76.8807 124 78 125.119 78 126.5C78 127.881 76.8807 129 75.5 129C74.1193 129 73 127.881 73 126.5C73 125.119 74.1193 124 75.5 124ZM105.5 124C106.881 124 108 125.119 108 126.5C108 127.881 106.881 129 105.5 129C104.119 129 103 127.881 103 126.5C103 125.119 104.119 124 105.5 124ZM132.5 124C133.881 124 135 125.119 135 126.5C135 127.881 133.881 129 132.5 129C131.119 129 130 127.881 130 126.5C130 125.119 131.119 124 132.5 124ZM-13.5 94C-12.1193 94 -11 95.1193 -11 96.5C-11 97.8807 -12.1193 99 -13.5 99C-14.8807 99 -16 97.8807 -16 96.5C-16 95.1193 -14.8807 94 -13.5 94ZM105.5 94C106.881 94 108 95.1193 108 96.5C108 97.8807 106.881 99 105.5 99C104.119 99 103 97.8807 103 96.5C103 95.1193 104.119 94 105.5 94ZM43.5 94C44.8807 94 46 95.1193 46 96.5C46 97.8807 44.8807 99 43.5 99C42.1193 99 41 97.8807 41 96.5C41 95.1193 42.1193 94 43.5 94ZM132.5 94C133.881 94 135 95.1193 135 96.5C135 97.8807 133.881 99 132.5 99C131.119 99 130 97.8807 130 96.5C130 95.1193 131.119 94 132.5 94ZM13.5 94C14.8807 94 16 95.1193 16 96.5C16 97.8807 14.8807 99 13.5 99C12.1193 99 11 97.8807 11 96.5C11 95.1193 12.1193 94 13.5 94ZM75.5 94C76.8807 94 78 95.1193 78 96.5C78 97.8807 76.8807 99 75.5 99C74.1193 99 73 97.8807 73 96.5C73 95.1193 74.1193 94 75.5 94ZM-13.5 64C-12.1193 64 -11 65.1193 -11 66.5C-11 67.8807 -12.1193 69 -13.5 69C-14.8807 69 -16 67.8807 -16 66.5C-16 65.1193 -14.8807 64 -13.5 64ZM13.5 64C14.8807 64 16 65.1193 16 66.5C16 67.8807 14.8807 69 13.5 69C12.1193 69 11 67.8807 11 66.5C11 65.1193 12.1193 64 13.5 64ZM43.5 64C44.8807 64 46 65.1193 46 66.5C46 67.8807 44.8807 69 43.5 69C42.1193 69 41 67.8807 41 66.5C41 65.1193 42.1193 64 43.5 64ZM75.5 64C76.8807 64 78 65.1193 78 66.5C78 67.8807 76.8807 69 75.5 69C74.1193 69 73 67.8807 73 66.5C73 65.1193 74.1193 64 75.5 64ZM105.5 64C106.881 64 108 65.1193 108 66.5C108 67.8807 106.881 69 105.5 69C104.119 69 103 67.8807 103 66.5C103 65.1193 104.119 64 105.5 64ZM132.5 64C133.881 64 135 65.1193 135 66.5C135 67.8807 133.881 69 132.5 69C131.119 69 130 67.8807 130 66.5C130 65.1193 131.119 64 132.5 64ZM-13.5 37C-12.1193 37 -11 38.1193 -11 39.5C-11 40.8807 -12.1193 42 -13.5 42C-14.8807 42 -16 40.8807 -16 39.5C-16 38.1193 -14.8807 37 -13.5 37ZM13.5 37C14.8807 37 16 38.1193 16 39.5C16 40.8807 14.8807 42 13.5 42C12.1193 42 11 40.8807 11 39.5C11 38.1193 12.1193 37 13.5 37ZM43.5 37C44.8807 37 46 38.1193 46 39.5C46 40.8807 44.8807 42 43.5 42C42.1193 42 41 40.8807 41 39.5C41 38.1193 42.1193 37 43.5 37ZM75.5 37C76.8807 37 78 38.1193 78 39.5C78 40.8807 76.8807 42 75.5 42C74.1193 42 73 40.8807 73 39.5C73 38.1193 74.1193 37 75.5 37ZM105.5 37C106.881 37 108 38.1193 108 39.5C108 40.8807 106.881 42 105.5 42C104.119 42 103 40.8807 103 39.5C103 38.1193 104.119 37 105.5 37ZM132.5 37C133.881 37 135 38.1193 135 39.5C135 40.8807 133.881 42 132.5 42C131.119 42 130 40.8807 130 39.5C130 38.1193 131.119 37 132.5 37Z" fill="#00AEFF"/>
<path d="M-13.5 182C-12.1193 182 -11 183.119 -11 184.5C-11 185.881 -12.1193 187 -13.5 187C-14.8807 187 -16 185.881 -16 184.5C-16 183.119 -14.8807 182 -13.5 182ZM13.5 182C14.8807 182 16 183.119 16 184.5C16 185.881 14.8807 187 13.5 187C12.1193 187 11 185.881 11 184.5C11 183.119 12.1193 182 13.5 182ZM43.5 182C44.8807 182 46 183.119 46 184.5C46 185.881 44.8807 187 43.5 187C42.1193 187 41 185.881 41 184.5C41 183.119 42.1193 182 43.5 182ZM75.5 182C76.8807 182 78 183.119 78 184.5C78 185.881 76.8807 187 75.5 187C74.1193 187 73 185.881 73 184.5C73 183.119 74.1193 182 75.5 182ZM105.5 182C106.881 182 108 183.119 108 184.5C108 185.881 106.881 187 105.5 187C104.119 187 103 185.881 103 184.5C103 183.119 104.119 182 105.5 182ZM132.5 182C133.881 182 135 183.119 135 184.5C135 185.881 133.881 187 132.5 187C131.119 187 130 185.881 130 184.5C130 183.119 131.119 182 132.5 182ZM-13.5 154C-12.1193 154 -11 155.119 -11 156.5C-11 157.881 -12.1193 159 -13.5 159C-14.8807 159 -16 157.881 -16 156.5C-16 155.119 -14.8807 154 -13.5 154ZM13.5 154C14.8807 154 16 155.119 16 156.5C16 157.881 14.8807 159 13.5 159C12.1193 159 11 157.881 11 156.5C11 155.119 12.1193 154 13.5 154ZM43.5 154C44.8807 154 46 155.119 46 156.5C46 157.881 44.8807 159 43.5 159C42.1193 159 41 157.881 41 156.5C41 155.119 42.1193 154 43.5 154ZM75.5 154C76.8807 154 78 155.119 78 156.5C78 157.881 76.8807 159 75.5 159C74.1193 159 73 157.881 73 156.5C73 155.119 74.1193 154 75.5 154ZM105.5 154C106.881 154 108 155.119 108 156.5C108 157.881 106.881 159 105.5 159C104.119 159 103 157.881 103 156.5C103 155.119 104.119 154 105.5 154ZM132.5 154C133.881 154 135 155.119 135 156.5C135 157.881 133.881 159 132.5 159C131.119 159 130 157.881 130 156.5C130 155.119 131.119 154 132.5 154ZM-13.5 124C-12.1193 124 -11 125.119 -11 126.5C-11 127.881 -12.1193 129 -13.5 129C-14.8807 129 -16 127.881 -16 126.5C-16 125.119 -14.8807 124 -13.5 124ZM13.5 124C14.8807 124 16 125.119 16 126.5C16 127.881 14.8807 129 13.5 129C12.1193 129 11 127.881 11 126.5C11 125.119 12.1193 124 13.5 124ZM43.5 124C44.8807 124 46 125.119 46 126.5C46 127.881 44.8807 129 43.5 129C42.1193 129 41 127.881 41 126.5C41 125.119 42.1193 124 43.5 124ZM75.5 124C76.8807 124 78 125.119 78 126.5C78 127.881 76.8807 129 75.5 129C74.1193 129 73 127.881 73 126.5C73 125.119 74.1193 124 75.5 124ZM105.5 124C106.881 124 108 125.119 108 126.5C108 127.881 106.881 129 105.5 129C104.119 129 103 127.881 103 126.5C103 125.119 104.119 124 105.5 124ZM132.5 124C133.881 124 135 125.119 135 126.5C135 127.881 133.881 129 132.5 129C131.119 129 130 127.881 130 126.5C130 125.119 131.119 124 132.5 124ZM-13.5 94C-12.1193 94 -11 95.1193 -11 96.5C-11 97.8807 -12.1193 99 -13.5 99C-14.8807 99 -16 97.8807 -16 96.5C-16 95.1193 -14.8807 94 -13.5 94ZM105.5 94C106.881 94 108 95.1193 108 96.5C108 97.8807 106.881 99 105.5 99C104.119 99 103 97.8807 103 96.5C103 95.1193 104.119 94 105.5 94ZM43.5 94C44.8807 94 46 95.1193 46 96.5C46 97.8807 44.8807 99 43.5 99C42.1193 99 41 97.8807 41 96.5C41 95.1193 42.1193 94 43.5 94ZM132.5 94C133.881 94 135 95.1193 135 96.5C135 97.8807 133.881 99 132.5 99C131.119 99 130 97.8807 130 96.5C130 95.1193 131.119 94 132.5 94ZM13.5 94C14.8807 94 16 95.1193 16 96.5C16 97.8807 14.8807 99 13.5 99C12.1193 99 11 97.8807 11 96.5C11 95.1193 12.1193 94 13.5 94ZM75.5 94C76.8807 94 78 95.1193 78 96.5C78 97.8807 76.8807 99 75.5 99C74.1193 99 73 97.8807 73 96.5C73 95.1193 74.1193 94 75.5 94ZM-13.5 64C-12.1193 64 -11 65.1193 -11 66.5C-11 67.8807 -12.1193 69 -13.5 69C-14.8807 69 -16 67.8807 -16 66.5C-16 65.1193 -14.8807 64 -13.5 64ZM13.5 64C14.8807 64 16 65.1193 16 66.5C16 67.8807 14.8807 69 13.5 69C12.1193 69 11 67.8807 11 66.5C11 65.1193 12.1193 64 13.5 64ZM43.5 64C44.8807 64 46 65.1193 46 66.5C46 67.8807 44.8807 69 43.5 69C42.1193 69 41 67.8807 41 66.5C41 65.1193 42.1193 64 43.5 64ZM75.5 64C76.8807 64 78 65.1193 78 66.5C78 67.8807 76.8807 69 75.5 69C74.1193 69 73 67.8807 73 66.5C73 65.1193 74.1193 64 75.5 64ZM105.5 64C106.881 64 108 65.1193 108 66.5C108 67.8807 106.881 69 105.5 69C104.119 69 103 67.8807 103 66.5C103 65.1193 104.119 64 105.5 64ZM132.5 64C133.881 64 135 65.1193 135 66.5C135 67.8807 133.881 69 132.5 69C131.119 69 130 67.8807 130 66.5C130 65.1193 131.119 64 132.5 64ZM-13.5 37C-12.1193 37 -11 38.1193 -11 39.5C-11 40.8807 -12.1193 42 -13.5 42C-14.8807 42 -16 40.8807 -16 39.5C-16 38.1193 -14.8807 37 -13.5 37ZM13.5 37C14.8807 37 16 38.1193 16 39.5C16 40.8807 14.8807 42 13.5 42C12.1193 42 11 40.8807 11 39.5C11 38.1193 12.1193 37 13.5 37ZM43.5 37C44.8807 37 46 38.1193 46 39.5C46 40.8807 44.8807 42 43.5 42C42.1193 42 41 40.8807 41 39.5C41 38.1193 42.1193 37 43.5 37ZM75.5 37C76.8807 37 78 38.1193 78 39.5C78 40.8807 76.8807 42 75.5 42C74.1193 42 73 40.8807 73 39.5C73 38.1193 74.1193 37 75.5 37ZM105.5 37C106.881 37 108 38.1193 108 39.5C108 40.8807 106.881 42 105.5 42C104.119 42 103 40.8807 103 39.5C103 38.1193 104.119 37 105.5 37ZM132.5 37C133.881 37 135 38.1193 135 39.5C135 40.8807 133.881 42 132.5 42C131.119 42 130 40.8807 130 39.5C130 38.1193 131.119 37 132.5 37Z" fill="white" fill-opacity="0.6"/>
</svg>
