<svg width="25" height="24" viewBox="0 0 25 24" fill="none" xmlns="http://www.w3.org/2000/svg">
<path d="M6.42619 14.3847L5.66673 17.2199L2.89092 17.2786C2.06136 15.7399 1.59082 13.9795 1.59082 12.1088C1.59082 10.2998 2.03076 8.59388 2.81059 7.0918H2.81119L5.28244 7.54486L6.365 10.0013C6.13842 10.6618 6.01493 11.3709 6.01493 12.1088C6.01501 12.9096 6.16007 13.6768 6.42619 14.3847Z" fill="#FBBB00"/>
<path d="M23.2189 10.0708C23.3442 10.7307 23.4095 11.4122 23.4095 12.1088C23.4095 12.8898 23.3274 13.6516 23.1709 14.3865C22.6399 16.8872 21.2523 19.0708 19.33 20.6161L19.3294 20.6155L16.2167 20.4566L15.7762 17.7066C17.0517 16.9585 18.0485 15.7879 18.5736 14.3865H12.7402V10.0708H18.6587H23.2189Z" fill="#518EF8"/>
<path d="M19.3286 20.6155L19.3292 20.6161C17.4597 22.1188 15.0848 23.0179 12.4996 23.0179C8.34517 23.0179 4.7332 20.6958 2.89062 17.2787L6.42589 14.3848C7.34716 16.8435 9.71899 18.5938 12.4996 18.5938C13.6948 18.5938 14.8145 18.2707 15.7753 17.7066L19.3286 20.6155Z" fill="#28B446"/>
<path d="M19.4631 3.71118L15.929 6.60448C14.9346 5.98292 13.7592 5.62385 12.4999 5.62385C9.6563 5.62385 7.24011 7.45441 6.36499 10.0013L2.81114 7.09181H2.81055C4.62614 3.59131 8.28367 1.19971 12.4999 1.19971C15.1468 1.19971 17.5738 2.14258 19.4631 3.71118Z" fill="#F14336"/>
</svg>
