<svg width="32" height="32" viewBox="0 0 32 32" fill="none" xmlns="http://www.w3.org/2000/svg">
<path d="M4 28V21.3333H6.66667V25.3333H10.6667V28H4ZM21.3333 28V25.3333H25.3333V21.3333H28V28H21.3333ZM16 25.3333C13.4222 25.3333 11.2222 24.4222 9.4 22.6C7.57778 20.7778 6.66667 18.5778 6.66667 16C6.66667 13.4222 7.57778 11.2222 9.4 9.4C11.2222 7.57778 13.4222 6.66667 16 6.66667C18.5778 6.66667 20.7778 7.57778 22.6 9.4C24.4222 11.2222 25.3333 13.4222 25.3333 16C25.3333 18.5778 24.4222 20.7778 22.6 22.6C20.7778 24.4222 18.5778 25.3333 16 25.3333ZM4 10.6667V4H10.6667V6.66667H6.66667V10.6667H4ZM25.3333 10.6667V6.66667H21.3333V4H28V10.6667H25.3333Z" fill="url(#paint0_linear_204_36556)"/>
<defs>
<linearGradient id="paint0_linear_204_36556" x1="16" y1="4" x2="16" y2="28" gradientUnits="userSpaceOnUse">
<stop stop-color="#1A47B8"/>
<stop offset="1" stop-color="#F93939"/>
</linearGradient>
</defs>
</svg>
