<svg width="32" height="32" viewBox="0 0 32 32" fill="none" xmlns="http://www.w3.org/2000/svg">
<g clip-path="url(#clip0_204_36587)">
<path d="M23.2969 9.29688L24.7031 10.7031L13 22.4062L7.29688 16.7031L8.70312 15.2969L13 19.5938L23.2969 9.29688ZM16 0C17.4688 0 18.8854 0.1875 20.25 0.5625C21.6146 0.9375 22.8906 1.47396 24.0781 2.17188C25.2656 2.86979 26.3438 3.70312 27.3125 4.67188C28.2812 5.64062 29.1146 6.72396 29.8125 7.92188C30.5104 9.11979 31.0469 10.3958 31.4219 11.75C31.7969 13.1042 31.9896 14.5208 32 16C32 17.4688 31.8125 18.8854 31.4375 20.25C31.0625 21.6146 30.526 22.8906 29.8281 24.0781C29.1302 25.2656 28.2969 26.3438 27.3281 27.3125C26.3594 28.2812 25.276 29.1146 24.0781 29.8125C22.8802 30.5104 21.6042 31.0469 20.25 31.4219C18.8958 31.7969 17.4792 31.9896 16 32C14.5312 32 13.1146 31.8125 11.75 31.4375C10.3854 31.0625 9.10938 30.526 7.92188 29.8281C6.73438 29.1302 5.65625 28.2969 4.6875 27.3281C3.71875 26.3594 2.88542 25.276 2.1875 24.0781C1.48958 22.8802 0.953125 21.6094 0.578125 20.2656C0.203125 18.9219 0.0104167 17.5 0 16C0 14.5312 0.1875 13.1146 0.5625 11.75C0.9375 10.3854 1.47396 9.10938 2.17188 7.92188C2.86979 6.73438 3.70312 5.65625 4.67188 4.6875C5.64062 3.71875 6.72396 2.88542 7.92188 2.1875C9.11979 1.48958 10.3906 0.953125 11.7344 0.578125C13.0781 0.203125 14.5 0.0104167 16 0ZM16 30C17.2812 30 18.5156 29.8333 19.7031 29.5C20.8906 29.1667 22.0052 28.6979 23.0469 28.0938C24.0885 27.4896 25.0365 26.7552 25.8906 25.8906C26.7448 25.026 27.474 24.0833 28.0781 23.0625C28.6823 22.0417 29.1562 20.9271 29.5 19.7188C29.8438 18.5104 30.0104 17.2708 30 16C30 14.7188 29.8333 13.4844 29.5 12.2969C29.1667 11.1094 28.6979 9.99479 28.0938 8.95312C27.4896 7.91146 26.7552 6.96354 25.8906 6.10938C25.026 5.25521 24.0833 4.52604 23.0625 3.92188C22.0417 3.31771 20.9271 2.84375 19.7188 2.5C18.5104 2.15625 17.2708 1.98958 16 2C14.7188 2 13.4844 2.16667 12.2969 2.5C11.1094 2.83333 9.99479 3.30208 8.95312 3.90625C7.91146 4.51042 6.96354 5.24479 6.10938 6.10938C5.25521 6.97396 4.52604 7.91667 3.92188 8.9375C3.31771 9.95833 2.84375 11.0729 2.5 12.2812C2.15625 13.4896 1.98958 14.7292 2 16C2 17.2812 2.16667 18.5156 2.5 19.7031C2.83333 20.8906 3.30208 22.0052 3.90625 23.0469C4.51042 24.0885 5.24479 25.0365 6.10938 25.8906C6.97396 26.7448 7.91667 27.474 8.9375 28.0781C9.95833 28.6823 11.0729 29.1562 12.2812 29.5C13.4896 29.8438 14.7292 30.0104 16 30Z" fill="#0A6A30"/>
</g>
<defs>
<clipPath id="clip0_204_36587">
<rect width="32" height="32" fill="white"/>
</clipPath>
</defs>
</svg>
