<svg width="16" height="16" viewBox="0 0 16 16" fill="none" xmlns="http://www.w3.org/2000/svg">
<path d="M1.19446 3.13889C1.19446 2.065 2.06501 1.19444 3.1389 1.19444H8.97224C10.0462 1.19444 10.9167 2.065 10.9167 3.13889V3.625H6.05557C4.71321 3.625 3.62501 4.7132 3.62501 6.05555V10.9167H3.1389C2.06501 10.9167 1.19446 10.0461 1.19446 8.97222V3.13889Z" fill="#00B23D"/>
<path fill-rule="evenodd" clip-rule="evenodd" d="M7.02779 5.08334C5.9539 5.08334 5.08334 5.95389 5.08334 7.02778V12.8611C5.08334 13.935 5.9539 14.8056 7.02779 14.8056H12.8611C13.935 14.8056 14.8056 13.935 14.8056 12.8611V7.02778C14.8056 5.95389 13.935 5.08334 12.8611 5.08334H7.02779ZM9.94445 9.94445C10.8841 9.94445 11.4028 9.18271 11.4028 8.24306C11.4028 7.30341 10.8841 6.54167 9.94445 6.54167C9.0048 6.54167 8.48612 7.30341 8.48612 8.24306C8.48612 9.18271 9.0048 9.94445 9.94445 9.94445ZM7.02779 12.4349C7.02779 11.4168 7.98455 10.6697 8.97223 10.9167C9.43474 11.6104 10.4542 11.6104 10.9167 10.9167C11.9044 10.6697 12.8611 11.4168 12.8611 12.4349V12.8709C12.8611 13.1339 12.6478 13.3472 12.3848 13.3472H7.50413C7.24105 13.3472 7.02779 13.1339 7.02779 12.8709V12.4349Z" fill="#00B23D"/>
</svg>
