<svg width="32" height="32" viewBox="0 0 32 32" fill="none" xmlns="http://www.w3.org/2000/svg">
<path d="M16 2C13.2311 2 10.5243 2.82109 8.22202 4.35943C5.91973 5.89777 4.12532 8.08427 3.06569 10.6424C2.00607 13.2006 1.72882 16.0155 2.26901 18.7313C2.80921 21.447 4.14258 23.9416 6.10051 25.8995C8.05845 27.8574 10.553 29.1908 13.2687 29.731C15.9845 30.2712 18.7994 29.9939 21.3576 28.9343C23.9157 27.8747 26.1022 26.0803 27.6406 23.778C29.1789 21.4757 30 18.7689 30 16C29.9958 12.2883 28.5194 8.72977 25.8948 6.10518C23.2702 3.48059 19.7117 2.00423 16 2ZM16 28C12.8174 28 9.76516 26.7357 7.51472 24.4853C5.26429 22.2348 4.00001 19.1826 4.00001 16C4.00001 12.8174 5.26429 9.76515 7.51472 7.51472C9.76516 5.26428 12.8174 4 16 4V16L24.481 24.481C23.3688 25.5972 22.047 26.4827 20.5916 27.0866C19.1361 27.6905 17.5757 28.0009 16 28Z" fill="url(#paint0_linear_204_36577)"/>
<defs>
<linearGradient id="paint0_linear_204_36577" x1="16" y1="2" x2="16" y2="30" gradientUnits="userSpaceOnUse">
<stop stop-color="#FFDB44"/>
<stop offset="0.45" stop-color="#FFDB44"/>
<stop offset="1" stop-color="#0052B5"/>
</linearGradient>
</defs>
</svg>
