<svg width="32" height="32" viewBox="0 0 32 32" fill="none" xmlns="http://www.w3.org/2000/svg">
<path d="M23.18 27.9999C21.6938 27.9999 20.4334 27.4826 19.3987 26.4479C18.364 25.4115 17.8467 24.151 17.8467 22.6666C17.8467 21.1821 18.364 19.9217 19.3987 18.8852C20.4334 17.8506 21.6938 17.3332 23.18 17.3332C24.6645 17.3332 25.9245 17.8506 26.96 18.8852C27.9956 19.9199 28.5134 21.1803 28.5134 22.6666C28.5134 24.1519 27.9956 25.4123 26.96 26.4479C25.9245 27.4835 24.6645 28.0008 23.18 27.9999ZM25.3867 25.6026L26.116 24.8746L23.692 22.4506V18.8199H22.6667V22.8826L25.3867 25.6026ZM7.48671 26.6666C6.89115 26.6666 6.38315 26.4568 5.96271 26.0372C5.54315 25.6177 5.33337 25.1097 5.33337 24.5132V7.48657C5.33337 6.89102 5.54315 6.38302 5.96271 5.96257C6.38226 5.54302 6.89026 5.33324 7.48671 5.33324H13.6694C13.7938 4.81146 14.0707 4.37324 14.5 4.01857C14.9294 3.66391 15.4294 3.48657 16 3.48657C16.5814 3.48657 17.0854 3.66435 17.512 4.01991C17.9387 4.37368 18.2143 4.81146 18.3387 5.33324H24.512C25.1094 5.33324 25.6178 5.54302 26.0374 5.96257C26.4569 6.38213 26.6667 6.89013 26.6667 7.48657V15.5132C26.4374 15.395 26.2205 15.2915 26.016 15.2026C25.8116 15.1137 25.584 15.0341 25.3334 14.9639V7.48657C25.3334 7.28213 25.248 7.09413 25.0774 6.92257C24.9058 6.75191 24.7178 6.66657 24.5134 6.66657H21.3334V9.6399H10.6667V6.66657H7.48671C7.28226 6.66657 7.09426 6.75191 6.92271 6.92257C6.75204 7.09413 6.66671 7.28213 6.66671 7.48657V24.5132C6.66671 24.7523 6.7436 24.9488 6.89737 25.1026C7.05115 25.2563 7.2476 25.3332 7.48671 25.3332H15.656C15.7272 25.5821 15.8112 25.8137 15.908 26.0279C16.0058 26.2412 16.1303 26.4541 16.2814 26.6666H7.48671ZM16 6.97324C16.3094 6.97324 16.5663 6.87146 16.7707 6.66791C16.9752 6.46346 17.0774 6.20657 17.0774 5.89724C17.0774 5.58791 16.9752 5.33102 16.7707 5.12657C16.5663 4.92213 16.3094 4.81991 16 4.81991C15.6907 4.81991 15.4338 4.92213 15.2294 5.12657C15.0249 5.33102 14.9227 5.58791 14.9227 5.89724C14.9227 6.20657 15.0249 6.46346 15.2294 6.66791C15.4338 6.87235 15.6907 6.97324 16 6.97324Z" fill="url(#paint0_linear_204_36567)"/>
<defs>
<linearGradient id="paint0_linear_204_36567" x1="16.9234" y1="3.48657" x2="16.9234" y2="27.9999" gradientUnits="userSpaceOnUse">
<stop stop-color="#F93939"/>
<stop offset="1" stop-color="#1A47B8"/>
</linearGradient>
</defs>
</svg>
